<?xml version="1.0" encoding="UTF-8"?>
<svg xmlns="http://www.w3.org/2000/svg" viewBox="0 0 64 64">
  <defs>
    <style>
      .vgwort-cls-1 {
        fill: #abd7ff;
      }
    </style>
  </defs>
  <g id="BG-Color">
    <rect class="vgwort-cls-1" width="64" height="64" rx="4" ry="4"/>
  </g>
  <g>
    <path d="M50,52H14c-1.104492,0-2-.895508-2-2V14c0-1.104492.895508-2,2-2h36c1.104492,0,2,.895508,2,2v36c0,1.104492-.895508,2-2,2ZM16,48h32V16H16v32Z"/>
    <g>
      <circle cx="30" cy="42" r="2"/>
      <circle cx="42" cy="42" r="2"/>
      <circle cx="36" cy="42" r="2"/>
      <path d="M37.669922,37.100586c.370117-.560547.433594-1.270508.167969-1.888672l-6-14c-.318359-.742188-1.053711-1.235352-1.862305-1.211914-.808594.009766-1.532227.505859-1.833008,1.256836l-8,20c-.410156,1.026367.088867,2.189453,1.114258,2.600586.244141.09668.495117.143555.742188.143555.793945,0,1.544922-.476562,1.858398-1.257812l1.902344-4.757812c.079102.009766.15918.014648.240234.014648h10c.671875,0,1.299805-.337891,1.669922-.899414ZM27.354492,34l2.708984-6.774414,2.90332,6.774414h-5.612305Z"/>
    </g>
  </g>
</svg>